<svg width="45" height="39" viewBox="0 0 45 39" fill="none" xmlns="http://www.w3.org/2000/svg">
<path d="M11.9083 0.480499C9.1573 0.876007 7.25007 1.6055 5.43074 2.97659C1.17683 6.16702 -0.791918 11.502 0.315504 16.8281C0.790113 19.1485 2.01179 21.5303 3.57625 23.2002C4.0157 23.666 7.38191 26.4785 12.963 31.0489C17.753 34.96 21.796 38.2559 21.963 38.3701C22.3848 38.6602 22.6749 38.625 23.1759 38.2471C23.4044 38.0713 27.3595 34.8457 31.9561 31.084C37.9327 26.1973 40.5694 23.9824 41.1934 23.3408C43.0128 21.4512 44.1729 19.2188 44.7442 16.5117C45.0343 15.1758 45.0343 12.6533 44.7442 11.3262C44.2081 8.78616 43.1095 6.58889 41.4659 4.76077C39.5323 2.59866 37.2647 1.29788 34.3643 0.682648C33.1075 0.410187 30.6993 0.392609 29.3985 0.638702C27.043 1.07816 24.9776 2.07132 23.1583 3.65335L22.4464 4.26858L21.8048 3.66214C20.2755 2.22952 18.1661 1.18362 15.8282 0.682648C15.0108 0.515656 12.5675 0.38382 11.9083 0.480499ZM14.9141 2.3262C15.4239 2.39651 16.2413 2.58987 16.7423 2.75686C18.4913 3.32815 19.6954 4.06643 21.172 5.48147C22.086 6.35159 22.1563 6.40432 22.5079 6.40432C22.8595 6.40432 22.921 6.36038 23.7647 5.53421C25.5401 3.79397 27.1837 2.90628 29.5303 2.39651C30.5587 2.168 32.9581 2.168 33.9952 2.39651C36.3595 2.90628 38.2667 3.96096 39.9014 5.66604C40.8243 6.62405 41.3692 7.37991 41.9141 8.45218C43.294 11.1592 43.5753 14.5781 42.6612 17.5137C42.0723 19.377 41.2198 20.836 39.919 22.1719C39.5938 22.5059 35.5421 25.8809 30.9014 29.669L22.4815 36.5596L22.0684 36.2168C21.8487 36.0323 17.9815 32.8682 13.4815 29.1944C8.33113 24.9844 5.10554 22.2862 4.78035 21.917C3.39168 20.3438 2.47761 18.5244 2.003 16.3535C1.72175 15.1055 1.73054 12.7149 2.003 11.4317C2.36336 9.77053 3.01375 8.2676 3.92781 7.00198C4.51668 6.1846 5.65047 5.00686 6.37117 4.46194C8.78816 2.63382 11.838 1.86917 14.9141 2.3262Z" fill="#F6A6BF"/>
<path d="M17.5339 7.93359C15.3806 8.45215 14.2468 10.8779 15.2224 12.8906C15.4949 13.4619 16.2859 14.2354 16.9187 14.5342C17.3933 14.7715 17.5339 14.7891 18.3689 14.7979C19.1863 14.7979 19.3445 14.7715 19.8015 14.5605C20.5046 14.2266 21.2165 13.5322 21.5593 12.8291C21.8142 12.293 21.8406 12.1875 21.8318 11.3701C21.8318 10.2451 21.6208 9.68262 20.9617 8.9707C20.0828 8.01269 18.7908 7.62598 17.5339 7.93359ZM19.3708 9.89355C20.0564 10.377 20.3113 11.3086 19.9597 12.0732C19.2917 13.5234 17.1033 13.3652 16.6902 11.8271C16.5056 11.124 16.7605 10.3066 17.2966 9.9375C17.9294 9.49805 18.782 9.48047 19.3708 9.89355Z" fill="#F6A6BF"/>
<path d="M25.8389 7.89844C24.8193 8.11817 23.8877 8.85645 23.4307 9.83203C23.1758 10.3594 23.1582 10.4736 23.1582 11.3262C23.1582 12.1787 23.1758 12.293 23.4307 12.8203C24.1602 14.3672 25.9355 15.1758 27.5615 14.7188C28.6074 14.4199 29.4863 13.6113 29.8906 12.583C30.3037 11.5283 30.1016 10.0957 29.4072 9.19043C28.6338 8.1709 27.1309 7.63477 25.8389 7.89844ZM27.2891 9.73535C28.001 10.0518 28.4756 10.8867 28.3437 11.5811C28.1855 12.416 27.5967 12.9873 26.8145 13.0664C26.2783 13.1191 25.8301 12.9697 25.4258 12.6182C25.0303 12.2754 24.8721 11.8975 24.8721 11.3262C24.8721 10.0518 26.1465 9.2168 27.2891 9.73535Z" fill="#F6A6BF"/>
<path d="M11.7332 13.7256C10.8103 14.0332 10.1775 14.5693 9.80835 15.3604C9.53588 15.958 9.54467 17.3555 9.82592 17.9268C10.1511 18.5859 10.5906 19.0254 11.2322 19.3418C11.7595 19.6055 11.8914 19.6318 12.6121 19.6318C13.3416 19.6318 13.447 19.6055 13.9568 19.333C14.616 18.9727 15.0554 18.5068 15.363 17.8389C15.697 17.1357 15.6882 16.1514 15.363 15.4395C15.0554 14.7803 14.5017 14.2002 13.9128 13.9014C13.3328 13.6201 12.3044 13.541 11.7332 13.7256ZM13.1306 15.4922C13.9832 15.8437 14.1062 17.127 13.3416 17.6631C12.99 17.918 12.4099 17.9795 12.0671 17.7949C11.5837 17.5488 11.3376 17.1709 11.3376 16.6699C11.3376 15.6768 12.2078 15.1055 13.1306 15.4922Z" fill="#F6A6BF"/>
<path d="M31.2709 13.8135C30.4184 14.1739 29.8471 14.7715 29.5219 15.6153C29.1352 16.6436 29.4428 18.0059 30.2338 18.7969C31.517 20.0801 33.7934 19.8956 34.848 18.4102C35.4369 17.584 35.5687 16.3272 35.1732 15.4307C34.9184 14.8682 34.2592 14.1827 33.6791 13.9014C32.976 13.5586 31.9652 13.5235 31.2709 13.8135ZM33.0551 15.5713C33.8812 16.125 33.8285 17.3204 32.9496 17.7598C31.8422 18.3311 30.6469 17.0655 31.2885 16.002C31.6664 15.3868 32.475 15.1846 33.0551 15.5713Z" fill="#F6A6BF"/>
<path d="M21.7344 16.5205C18.2012 16.8545 15.2393 19.4033 14.2197 22.9805C14.0615 23.543 14.0264 23.9033 14.0176 24.9053C14.0176 26.1094 14.0264 26.1446 14.2988 26.7334C14.835 27.8672 15.9951 28.7285 17.1992 28.9043C17.5684 28.9571 18.4033 28.9043 20.1963 28.7285L22.6748 28.4737L24.7227 28.6934C27.2978 28.9658 28.1064 28.9834 28.7129 28.7461C29.8115 28.3242 30.4971 27.709 30.9629 26.7246C31.6396 25.2832 31.2529 22.6553 30.084 20.7041C29.6094 19.9219 28.6162 18.8057 27.8603 18.2256C26.1641 16.916 23.958 16.3096 21.7344 16.5205ZM24.3008 18.4541C27.3066 19.1836 29.5303 21.9434 29.5303 24.9492C29.5303 25.8633 29.3369 26.3291 28.7568 26.7686C28.1504 27.2344 27.8867 27.2432 25.1182 26.9619L22.6396 26.7071L20.1436 26.9619C17.9814 27.1817 17.5859 27.208 17.2168 27.1114C16.2764 26.8653 15.7314 26.083 15.7314 24.9932C15.7314 21.5918 18.4736 18.6123 21.9102 18.2783C22.7539 18.1992 23.4482 18.2432 24.3008 18.4541Z" fill="#F6A6BF"/>
</svg>
